<svg width="361" height="167" viewBox="0 0 361 167" fill="none" xmlns="http://www.w3.org/2000/svg">
  <rect width="360.455" height="166.606" fill="white"/>
  <rect x="41.9138" y="41.9135" width="276.628" height="82.7789" fill="white"/>
  <path
    d="M160.526 103.348C169.713 103.348 174.939 98.3971 174.939 91.1356C174.939 84.8093 171.308 81.3436 163.551 79.9683L159.976 79.3082C156.29 78.6481 154.64 77.4378 154.64 74.5222C154.64 71.6616 156.785 70.0113 160.911 70.0113C164.982 70.0113 167.622 71.6066 169.493 73.9721L174.444 69.2962C171.363 65.6104 167.072 63.63 161.296 63.63C152.714 63.63 147.378 68.0859 147.378 74.9623C147.378 81.2336 151.119 84.9194 158.875 86.1296L162.506 86.6797C166.522 87.3949 167.732 88.9902 167.732 91.5757C167.732 94.8214 165.422 96.9668 160.966 96.9668C157.005 96.9668 153.759 95.3165 151.119 92.2359L146.223 96.9668C149.469 100.763 153.979 103.348 160.526 103.348Z"
    fill="#323232"/>
  <path
    d="M198.942 102.688H205.983V73.9721H198.942V92.951C198.942 96.0316 196.136 97.517 193.331 97.517C189.975 97.517 188.49 95.3715 188.49 91.4107V73.9721H181.448V92.1258C181.448 99.2773 184.749 103.348 190.635 103.348C195.366 103.348 197.676 100.763 198.667 97.902H198.942V102.688Z"
    fill="#323232"/>
  <path
    d="M221.215 103.348C225.506 103.348 228.642 101.423 229.577 97.737H229.907C230.347 100.708 232.217 102.688 235.243 102.688H239.149V97.0769H236.288V83.5441C236.288 76.9977 232.162 73.312 224.406 73.312C218.63 73.312 215.274 75.5124 213.184 78.8131L217.364 82.5539C218.74 80.5735 220.61 78.9231 223.911 78.9231C227.652 78.9231 229.247 80.7935 229.247 83.9842V86.0746H224.351C216.539 86.0746 212.083 88.9902 212.083 94.8764C212.083 99.9925 215.384 103.348 221.215 103.348ZM223.581 98.2321C220.83 98.2321 219.235 97.0769 219.235 94.7664V93.8312C219.235 91.5757 221.05 90.3105 224.736 90.3105H229.247V94.1063C229.247 96.8018 226.716 98.2321 223.581 98.2321Z"
    fill="#323232"/>
  <path
    d="M262.671 102.688H269.713V61.9797H262.671V78.7031H262.396C261.406 75.4024 258.271 73.312 254.475 73.312C247.268 73.312 243.252 78.7031 243.252 88.2751C243.252 97.902 247.268 103.348 254.475 103.348C258.271 103.348 261.351 101.148 262.396 97.902H262.671V102.688ZM256.73 97.517C253.099 97.517 250.624 94.8764 250.624 90.8056V85.8546C250.624 81.7837 253.099 79.0882 256.73 79.0882C260.086 79.0882 262.671 80.9035 262.671 83.7091V92.841C262.671 95.8116 260.086 97.517 256.73 97.517Z"
    fill="#323232"/>
  <path
    d="M289.44 103.348C294.777 103.348 298.957 101.313 301.323 98.0671L297.527 93.8312C295.767 96.0867 293.676 97.737 290.211 97.737C285.59 97.737 283.224 94.9314 283.224 90.8056V90.0904H302.313V87.78C302.313 79.9133 298.187 73.312 289.22 73.312C280.804 73.312 275.908 79.1982 275.908 88.2751C275.908 97.4619 280.969 103.348 289.44 103.348ZM289.33 78.5931C292.961 78.5931 294.997 81.2886 294.997 85.2494V85.7445H283.224V85.3044C283.224 81.3436 285.645 78.5931 289.33 78.5931Z"
    fill="#323232"/>
  <path
    d="M85.7387 41.8386L111.847 67.9467C114.981 71.0813 114.981 76.1634 111.847 79.298C108.712 82.4326 103.63 82.4326 100.495 79.298L84.3587 63.1613C78.8517 57.6543 78.8517 48.7256 84.3587 43.2185L85.7387 41.8386Z"
    fill="#4D74E0"/>
  <path fill-rule="evenodd" clip-rule="evenodd"
        d="M79.8782 67.5258C79.8391 67.4874 79.8001 67.4487 79.7612 67.4099L79.7582 67.4068L79.7551 67.4038C72.4991 60.1445 72.5001 48.3775 79.7582 41.1195C79.798 41.0796 79.838 41.04 79.8782 41.0005L79.8777 41L79.7582 41.1195L66.6145 54.2632C60.3453 60.5323 60.3453 70.6967 66.6145 76.9659L88.1223 98.4737L88.1218 98.4742C88.1619 98.5136 88.2019 98.5533 88.2418 98.5932C95.5009 105.852 95.5009 117.621 88.2418 124.881C88.2019 124.92 88.1619 124.96 88.1218 124.999L88.1223 125L88.2418 124.881L101.385 111.737C107.655 105.468 107.655 95.3033 101.385 89.0341L79.8777 67.5263L79.8782 67.5258Z"
        fill="#4D74E0"/>
  <path
    d="M82.2343 124.17L56.328 98.2638C53.1935 95.1292 53.1935 90.047 56.328 86.9124C59.4626 83.7778 64.5448 83.7778 67.6794 86.9124L83.6776 102.911C89.1497 108.383 89.1497 117.255 83.6776 122.727L82.2343 124.17Z"
    fill="#4D74E0"/>
</svg>
